<?xml version="1.0" standalone="no"?><!DOCTYPE svg PUBLIC "-//W3C//DTD SVG 1.1//EN" "http://www.w3.org/Graphics/SVG/1.1/DTD/svg11.dtd"><svg t="1585357118238" class="icon" viewBox="0 0 1024 1024" version="1.1" xmlns="http://www.w3.org/2000/svg" p-id="1890" width="30" height="30" xmlns:xlink="http://www.w3.org/1999/xlink"><defs><style type="text/css"></style></defs><path d="M727.8 745.2c0 29.7-5.7 57.4-17.1 83.2-11.4 25.8-26.9 48.5-46.5 68.1-19.7 19.6-42.4 35.2-68.2 46.5s-53.6 17-83.3 17c-29.8 0-57.7-5.7-84-17-26.2-11.3-49.2-26.9-68.9-46.5-19.7-19.6-35.2-42.4-46.6-68.1s-17.1-53.5-17.1-83.2c0-20.1 5.2-50.9 15.7-92.4s23.8-87.5 40-138.2c16.1-50.7 33.7-102.7 52.5-155.9s36.3-101.7 52.4-145.4 34.8-93.4 55.8-149.3c21 55.9 39.6 105.7 55.8 149.3 16.1 43.7 33.5 92.2 51.8 145.4 18.4 53.3 35.7 105.2 51.8 155.9s29.5 96.7 40 138.2c10.5 41.5 15.9 72.3 15.9 92.4z" p-id="1891" fill="#1296db"></path></svg>